<?xml version="1.0" encoding="UTF-8" standalone="no"?>
<!DOCTYPE svg PUBLIC "-//W3C//DTD SVG 1.1//EN" "http://www.w3.org/Graphics/SVG/1.1/DTD/svg11.dtd">
<!-- Generiert durch Microsoft Visio, SVG Export ANAM_Logo_01.svg Page-1 -->
<svg xmlns="http://www.w3.org/2000/svg" xmlns:xlink="http://www.w3.org/1999/xlink" xmlns:ev="http://www.w3.org/2001/xml-events"
		xmlns:v="http://schemas.microsoft.com/visio/2003/SVGExtensions/" width="11.6929in" height="8.26772in"
		viewBox="0 0 841.89 595.276" xml:space="preserve" color-interpolation-filters="sRGB" class="st2">
	<v:documentProperties v:langID="2055" v:metric="true" v:viewMarkup="false">
		<v:userDefs>
			<v:ud v:nameU="msvNoAutoConnect" v:val="VT0(1):26"/>
		</v:userDefs>
	</v:documentProperties>

	<style type="text/css">
	<![CDATA[
		.st1 {fill:#000000;stroke:#000000;stroke-linecap:round;stroke-linejoin:round;stroke-width:0.72}
		.st2 {fill:none;fill-rule:evenodd;font-size:12px;overflow:visible;stroke-linecap:square;stroke-miterlimit:3}
	]]>
	</style>

	<g v:mID="0" v:index="1" v:groupContext="foregroundPage">
		<title>Zeichenblatt-1</title>
		<v:pageProperties v:drawingScale="0.0393701" v:pageScale="0.0393701" v:drawingUnits="24" v:shadowOffsetX="8.50394"
				v:shadowOffsetY="-8.50394"/>
		<g id="group10-1" transform="translate(56.6929,-220.252)" v:mID="10" v:groupContext="group">
			<title>Tabelle.10</title>
			<g id="shape6-2" v:mID="6" v:groupContext="shape" transform="translate(490.869,-4.54747E-13)">
				<title>Tabelle.6</title>
				<path d="M103.99 567.66 A64.2568 64.2568 0 0 1 56.52 581.47 A66.7416 66.7416 0 0 1 0.41 508.1 A85.5788 85.5788 179.55
							 0 1 59.8 435.6 A81.2214 81.2214 2.06 0 1 125.74 442.5 A42.6098 42.6098 178.45 0 1 140.24 458.04 A61.1691
							 61.1691 0 0 1 217.92 444.23 A77.8137 77.8137 0 0 1 242.09 478.75 A98.2111 98.2111 0 0 1 190.3 595.28
							 A130.467 130.467 -180 0 0 216.19 503.78 A55.7172 55.7172 -180 0 0 166.13 453.72 A19.8673 19.8673 -180
							 0 0 144.55 469.26 A777.671 777.671 -180 0 0 144.55 572.83 A58.8455 58.8455 -180 0 0 115.21 582.33 A300.183
							 300.183 -180 0 0 115.21 477.89 A46.5791 46.5791 -180 0 0 45.3 451.13 A37.1242 37.1242 -180 0 0 31.49
							 470.12 A73.3057 73.3057 -180 0 0 103.99 567.66 Z" class="st1"/>
			</g>
			<g id="shape7-4" v:mID="7" v:groupContext="shape" transform="translate(327.814,-12.9468)">
				<title>Tabelle.7</title>
				<path d="M103.99 580.6 A64.2568 64.2568 0 0 1 56.52 594.41 A66.7416 66.7416 0 0 1 0.41 521.05 A85.5788 85.5788 177.98
							 0 1 59.8 448.55 A81.2214 81.2214 8.52 0 1 125.74 455.45 A42.6098 42.6098 173.37 0 1 140.24 470.99 A40.9226
							 40.9226 0 0 1 144.55 482.21 A777.671 777.671 -180 0 0 144.55 585.78 A58.8455 58.8455 -180 0 0 115.21
							 595.28 A300.183 300.183 -180 0 0 115.21 490.84 A46.5791 46.5791 -180 0 0 45.3 464.08 A37.1242 37.1242
							 -180 0 0 31.49 483.07 A73.3057 73.3057 -180 0 0 103.99 580.6 Z" class="st1"/>
			</g>
			<g id="shape8-6" v:mID="8" v:groupContext="shape" transform="translate(163.055,-4.418)">
				<title>Tabelle.8</title>
				<path d="M-0 455.02 A71.7108 71.7108 -1.72 0 0 29.49 445.71 A42.6098 42.6098 178.28 0 1 39.61 458.04 A61.1691 61.1691
							 0 0 1 117.29 444.23 A77.8137 77.8137 0 0 1 141.46 478.75 A98.2111 98.2111 0 0 1 89.67 595.28 A130.467
							 130.467 -180 0 0 115.56 503.78 A55.7172 55.7172 -180 0 0 65.5 453.72 A19.8673 19.8673 -180 0 0 43.92
							 469.26 A777.671 777.671 -180 0 0 43.92 572.83 A58.8455 58.8455 -180 0 0 14.58 582.33 A300.183 300.183
							 -180 0 0 14.58 477.89 A46.5791 46.5791 -180 0 0 0 455.02 Z" class="st1"/>
			</g>
			<g id="shape9-8" v:mID="9" v:groupContext="shape" transform="translate(0,-12.9468)">
				<title>Tabelle.9</title>
				<path d="M103.99 580.6 A64.2568 64.2568 0 0 1 56.52 594.41 A66.7416 66.7416 0 0 1 0.41 521.05 A85.5788 85.5788 177.98
							 0 1 59.8 448.55 A81.2214 81.2214 8.52 0 1 125.74 455.45 A42.6098 42.6098 173.37 0 1 140.24 470.99 A40.9226
							 40.9226 0 0 1 144.55 482.21 A777.671 777.671 -180 0 0 144.55 585.78 A58.8455 58.8455 -180 0 0 115.21
							 595.28 A300.183 300.183 -180 0 0 115.21 490.84 A46.5791 46.5791 -180 0 0 45.3 464.08 A37.1242 37.1242
							 -180 0 0 31.49 483.07 A73.3057 73.3057 -180 0 0 103.99 580.6 Z" class="st1"/>
			</g>
		</g>
	</g>
</svg>
