<?xml version="1.0" standalone="no"?>
<!DOCTYPE svg PUBLIC "-//W3C//DTD SVG 20010904//EN"
 "http://www.w3.org/TR/2001/REC-SVG-20010904/DTD/svg10.dtd">
<svg version="1.0" xmlns="http://www.w3.org/2000/svg"
 width="1165.000000pt" height="1165.000000pt" viewBox="0 0 1165.000000 1165.000000"
 preserveAspectRatio="xMidYMid meet">
<metadata>
Created by potrace 1.11, written by Peter Selinger 2001-2013
</metadata>
<g transform="translate(0.000000,1165.000000) scale(0.100000,-0.100000)"
fill="#000000" stroke="none">
<path d="M4080 11635 c-372 -51 -668 -188 -910 -422 -237 -228 -371 -496 -410
-819 -41 -337 145 -767 415 -959 83 -60 213 -121 309 -145 377 -96 697 62 925
458 24 41 40 76 37 79 -3 4 -54 -17 -113 -45 -245 -115 -432 -137 -606 -72
-154 58 -289 196 -345 353 -121 340 189 777 645 909 69 20 100 23 273 23 151
0 214 -4 280 -18 281 -61 493 -174 677 -359 188 -191 319 -440 389 -743 25
-108 28 -139 28 -300 0 -196 -9 -251 -65 -419 -138 -415 -524 -849 -1044
-1175 -115 -72 -350 -192 -478 -245 -649 -267 -1454 -358 -2262 -256 -529 67
-1114 233 -1554 441 -169 80 -163 67 32 -73 446 -317 816 -531 1142 -661 314
-125 513 -169 1142 -252 105 -14 206 -25 222 -25 17 0 31 -4 31 -8 0 -5 -34
-32 -76 -62 -235 -164 -553 -430 -788 -660 -484 -473 -819 -959 -1035 -1500
-178 -445 -271 -940 -271 -1450 0 -632 205 -1245 567 -1695 161 -200 329 -336
548 -445 235 -117 410 -155 670 -147 211 7 377 47 545 132 184 92 380 304 481
519 69 147 84 220 83 391 -1 179 -19 260 -90 405 -39 77 -62 110 -129 176 -70
70 -97 89 -186 132 -109 53 -187 76 -310 92 -97 12 -259 13 -259 0 0 -5 39
-35 86 -67 173 -115 306 -266 353 -404 82 -235 -14 -526 -216 -655 -227 -146
-584 -110 -876 88 -211 143 -388 441 -459 771 -25 119 -30 350 -9 456 55 283
190 531 414 760 254 259 525 388 884 422 467 44 1116 -158 1643 -511 524 -352
1004 -914 1350 -1583 299 -577 500 -1254 567 -1904 9 -90 20 -160 24 -156 7 9
33 274 50 521 16 223 6 790 -15 942 -52 361 -117 573 -347 1124 -60 145 -109
265 -109 268 0 3 87 -32 193 -77 1253 -539 2343 -635 3344 -294 200 68 354
134 564 240 306 155 525 313 755 543 353 354 586 756 676 1171 30 137 33 475
5 605 -62 286 -173 495 -367 691 -125 126 -211 189 -328 239 -316 136 -698
126 -952 -24 -389 -230 -516 -632 -329 -1046 36 -79 110 -210 119 -210 3 0 12
59 18 130 38 398 213 625 525 678 82 14 107 14 169 4 227 -39 397 -214 485
-499 25 -81 27 -102 27 -263 1 -204 -13 -272 -90 -425 -199 -395 -526 -654
-934 -742 -129 -27 -418 -25 -559 6 -323 69 -547 185 -746 385 -242 244 -405
585 -495 1036 -46 228 -55 333 -55 610 0 488 74 857 272 1360 343 872 1003
1705 1803 2279 174 126 169 126 -95 6 -697 -318 -1159 -626 -1482 -988 -129
-143 -440 -535 -553 -697 l-25 -35 -17 160 c-104 965 -368 1761 -792 2390
-286 424 -687 809 -1150 1102 -382 243 -813 396 -1238 442 -131 15 -481 12
-598 -4z m2483 -2040 c254 -313 448 -712 597 -1227 55 -187 92 -346 114 -490
17 -104 46 -388 46 -446 l0 -35 -112 109 c-364 352 -851 587 -1338 644 -157
19 -150 8 -73 107 323 424 513 980 513 1502 l0 106 86 -85 c47 -47 122 -130
167 -185z m-718 -2109 c508 -92 959 -408 1213 -853 407 -710 259 -1614 -353
-2156 -527 -467 -1266 -573 -1901 -272 -61 29 -114 57 -118 64 -5 8 7 11 39
11 134 0 445 67 631 135 224 83 479 226 696 392 138 105 325 293 426 428 105
139 203 333 236 465 96 382 -24 838 -277 1048 -66 55 -209 125 -312 153 -113
30 -307 37 -409 14 -146 -32 -277 -118 -346 -225 -18 -28 -44 -85 -58 -128
-21 -65 -25 -96 -26 -197 0 -105 4 -129 27 -194 14 -41 43 -99 63 -128 36 -53
118 -133 135 -133 5 0 9 51 9 113 0 183 33 298 109 380 95 102 262 124 417 53
166 -76 262 -282 234 -503 -35 -275 -216 -530 -467 -656 -28 -15 -91 -39 -140
-54 -79 -24 -104 -26 -248 -27 -133 0 -175 3 -247 21 -274 69 -461 237 -608
545 -161 338 -205 752 -130 1219 23 138 13 123 136 208 206 145 475 248 742
286 124 18 403 13 527 -9z m-1841 -1381 c65 -397 209 -690 465 -946 161 -161
314 -264 510 -344 l54 -23 -47 -21 c-175 -77 -367 -114 -599 -114 l-168 -1
-24 29 c-62 75 -159 230 -209 335 -215 450 -232 931 -48 1399 l37 93 6 -153
c4 -85 14 -199 23 -254z m-764 324 c-76 -250 -108 -605 -79 -895 22 -225 86
-479 173 -688 26 -60 45 -110 44 -111 -2 -1 -48 4 -103 12 -163 23 -500 20
-674 -6 -314 -48 -623 -151 -875 -293 -48 -27 -90 -47 -93 -44 -9 8 56 224
102 343 120 306 304 602 569 912 125 148 442 462 558 555 97 76 391 287 395
282 1 -1 -6 -31 -17 -67z m4425 -2298 c212 -415 560 -781 971 -1021 l67 -39
-29 -11 c-57 -22 -271 -70 -389 -87 -167 -24 -529 -24 -720 1 -510 64 -999
207 -1390 403 l-100 51 45 11 c341 86 655 241 935 461 115 90 318 299 405 417
l74 101 36 -87 c20 -47 63 -137 95 -200z"/>
</g>
</svg>
